<svg width="40" height="40" viewBox="0 0 40 40" fill="none" xmlns="http://www.w3.org/2000/svg">
<path d="M0 0H32C36.4183 0 40 3.58172 40 8V32C40 36.4183 36.4183 40 32 40H0V0Z" fill="#8064A2"/>
<path d="M18.8333 14C16.1719 14 14 16.1719 14 18.8333C14 21.4948 16.1719 23.6667 18.8333 23.6667C19.9244 23.6667 20.9296 23.2977 21.7402 22.6836L24.862 25.8047C24.9234 25.8687 24.997 25.9198 25.0784 25.9549C25.1598 25.9901 25.2474 26.0087 25.3361 26.0096C25.4248 26.0105 25.5128 25.9937 25.5949 25.9602C25.6771 25.9267 25.7517 25.8771 25.8144 25.8144C25.8771 25.7517 25.9267 25.6771 25.9602 25.5949C25.9937 25.5128 26.0105 25.4248 26.0096 25.3361C26.0087 25.2474 25.9901 25.1598 25.9549 25.0784C25.9198 24.997 25.8687 24.9234 25.8047 24.862L22.6836 21.7402C23.2977 20.9296 23.6667 19.9244 23.6667 18.8333C23.6667 16.1719 21.4948 14 18.8333 14ZM18.8333 15.3333C20.7742 15.3333 22.3333 16.8924 22.3333 18.8333C22.3333 19.7652 21.9714 20.6069 21.3828 21.2324C21.3255 21.2739 21.2752 21.3242 21.2337 21.3815C20.608 21.9708 19.7659 22.3333 18.8333 22.3333C16.8924 22.3333 15.3333 20.7742 15.3333 18.8333C15.3333 16.8924 16.8924 15.3333 18.8333 15.3333Z" fill="white"/>
</svg>
