<svg width="10" height="11" viewBox="0 0 10 11" fill="none" xmlns="http://www.w3.org/2000/svg">
<path id="Star 1" d="M4.62056 1.13723C4.74219 0.772694 5.25781 0.772694 5.37944 1.13723L6.28143 3.84062C6.33554 4.0028 6.48675 4.11266 6.65771 4.11401L9.50752 4.13645C9.8918 4.13948 10.0511 4.62987 9.74202 4.85819L7.44968 6.55142C7.31215 6.653 7.2544 6.83076 7.30595 6.99377L8.16524 9.71104C8.28111 10.0774 7.86396 10.3805 7.55129 10.1571L5.23256 8.50018C5.09345 8.40078 4.90655 8.40078 4.76744 8.50018L2.44871 10.1571C2.13604 10.3805 1.71889 10.0774 1.83476 9.71104L2.69405 6.99377C2.7456 6.83076 2.68785 6.653 2.55032 6.55142L0.257977 4.85819C-0.0511303 4.62987 0.108204 4.13948 0.492481 4.13645L3.34229 4.11401C3.51325 4.11266 3.66446 4.0028 3.71857 3.84062L4.62056 1.13723Z" fill="white"/>
</svg>
